<svg width="45" height="45" viewBox="0 0 45 45" fill="none" xmlns="http://www.w3.org/2000/svg">
<path d="M39.2164 25.1106L37.1355 23.0298C36.8235 22.7151 36.563 22.3531 36.3637 21.9573L34.3837 17.9973C34.3298 17.8898 34.2512 17.7967 34.1542 17.7255C34.0573 17.6544 33.9448 17.6073 33.8261 17.5882C33.7074 17.569 33.5859 17.5783 33.4715 17.6154C33.3571 17.6524 33.2532 17.716 33.1682 17.8011C32.9766 17.9917 32.7377 18.1278 32.4761 18.1955C32.2144 18.2631 31.9395 18.2599 31.6795 18.1861L29.3457 17.5206C28.9723 17.4156 28.5737 17.4471 28.2214 17.6094C27.8691 17.7717 27.5862 18.0542 27.4233 18.4062C27.2604 18.7582 27.2282 19.1568 27.3326 19.5304C27.4369 19.9039 27.671 20.2281 27.9927 20.4448L29.0689 21.1598C30.1505 21.8839 30.3045 23.4148 29.3842 24.3351L29.0175 24.7018C28.6289 25.0904 28.4125 25.6148 28.4125 26.1611V26.9128C28.4125 27.6626 28.2109 28.3959 27.8259 29.0358L25.415 33.0526C25.0714 33.6258 24.5851 34.1002 24.0035 34.4295C23.422 34.7588 22.765 34.9319 22.0967 34.9318C21.5837 34.9318 21.0918 34.728 20.729 34.3653C20.3663 34.0025 20.1625 33.5106 20.1625 32.9976V30.8489C20.1625 29.1623 19.1359 27.6461 17.5702 27.0191L16.3694 26.5406C15.4957 26.1909 14.7678 25.5529 14.3066 24.7325C13.8454 23.9122 13.6786 22.9588 13.8339 22.0306L13.8467 21.9536C13.934 21.4441 14.1142 20.9551 14.3784 20.5108L14.5434 20.2358C14.9812 19.5067 15.6337 18.9307 16.4115 18.5868C17.1893 18.2428 18.0544 18.1477 18.8884 18.3144L21.048 18.7471C21.5562 18.8485 22.084 18.7548 22.5263 18.4847C22.9686 18.2147 23.293 17.788 23.435 17.2896L23.8164 15.9513C23.9485 15.4889 23.9149 14.9949 23.7214 14.5547C23.5279 14.1145 23.1867 13.7557 22.7567 13.5404L21.5375 12.9318L21.3707 13.0986C20.9877 13.4817 20.5329 13.7855 20.0324 13.9928C19.532 14.2001 18.9956 14.3068 18.4539 14.3068H18.1239C17.6689 14.3074 17.2326 14.488 16.9102 14.8091C16.6162 15.1058 16.2235 15.2844 15.8067 15.311C15.3898 15.3376 14.9776 15.2105 14.6482 14.9536C14.3188 14.6967 14.0951 14.328 14.0193 13.9172C13.9436 13.5064 14.0211 13.0821 14.2372 12.7246L16.824 8.41078C17.0801 7.98111 17.2576 7.50931 17.3484 7.01744M39.2164 25.1106C39.3459 24.2758 39.4113 23.4246 39.4125 22.5568C39.4132 19.911 38.7776 17.3039 37.5593 14.9553C36.341 12.6067 34.5758 10.5855 32.4126 9.06211C30.2494 7.53877 27.7515 6.55798 25.1298 6.20244C22.508 5.84691 19.8392 6.12706 17.3484 7.01928C14.6063 8.0022 12.1733 9.69351 10.2966 11.9213C8.41997 14.1492 7.16653 16.8341 6.66371 19.7033C6.16088 22.5725 6.42659 25.5237 7.43382 28.2569C8.44106 30.9902 10.1539 33.4081 12.3983 35.2649C14.6428 37.1217 17.3387 38.3512 20.2123 38.8285C23.0858 39.3058 26.0345 39.0139 28.7587 37.9825C31.4829 36.951 33.8855 35.2167 35.7222 32.9559C37.559 30.6951 38.7646 27.9883 39.2164 25.1106Z" stroke="#00A2B5" stroke-width="2.5" stroke-linecap="round" stroke-linejoin="round"/>
</svg>
