<svg width="43" height="43" viewBox="0 0 43 43" fill="none" xmlns="http://www.w3.org/2000/svg">
<path d="M35.1703 4.05678H12.3451C11.7507 4.05686 11.1626 4.17806 10.6166 4.41297C10.0706 4.64788 9.57822 4.99158 9.16947 5.4231C8.76072 5.85461 8.44418 6.36489 8.23917 6.92279C8.03417 7.48069 7.94499 8.07452 7.97709 8.66803M7.97709 8.66803C8.03753 9.78571 8.52406 10.8377 9.33657 11.6076C10.1491 12.3775 11.2258 12.8066 12.3451 12.8068H28.9701C32.2706 12.8068 33.9191 12.8068 34.9446 13.8323C35.9701 14.8578 35.9701 16.5063 35.9701 19.8068V32.0568C35.9701 35.3573 35.9701 37.0058 34.9446 38.0313C33.9191 39.0568 32.2706 39.0568 28.9701 39.0568H18.4771C13.5263 39.0568 11.0518 39.0568 9.51359 37.5185C7.97709 35.982 7.97709 33.5058 7.97709 28.5568V8.66803ZM7.97709 8.66803V8.43353M12.3451 8.43178H28.9701C30.6203 8.43178 31.4446 8.43178 31.9573 8.94453C32.4701 9.45728 32.4701 10.2815 32.4701 11.9318M28.0951 22.4318H15.8451M22.8451 29.4318H15.8451" stroke="#00A2B5" stroke-width="2.5" stroke-linecap="round" stroke-linejoin="round"/>
</svg>
