<svg width="43" height="43" viewBox="0 0 43 43" fill="none" xmlns="http://www.w3.org/2000/svg">
<path d="M7 40H36M31.7536 21.8741C32.2673 23.1732 30.838 24.7313 27.9774 27.8517C24.9593 31.1406 23.4057 32.785 21.5 32.8056C19.5943 32.785 18.0407 31.1406 15.0226 27.8517C12.1641 24.7334 10.7327 23.1732 11.2464 21.8741L11.3086 21.7323C11.8679 20.5586 13.7218 20.4784 17.3571 20.4722V7.11113C17.3571 6.15529 17.3571 5.6784 17.4628 5.28579C17.604 4.76341 17.8813 4.28709 18.2667 3.90464C18.6521 3.5222 19.1321 3.24708 19.6585 3.1069C20.0562 3.00002 20.5389 3.00002 21.5 3.00002C22.4611 3.00002 22.9438 3.00002 23.3394 3.10485C23.8658 3.24502 24.3458 3.52014 24.7312 3.90259C25.1166 4.28503 25.3939 4.76136 25.5351 5.28374C25.6429 5.68046 25.6429 6.15735 25.6429 7.11113V20.4722C29.2782 20.4784 31.1321 20.5586 31.6914 21.7343C31.7135 21.7796 31.7342 21.8262 31.7536 21.8741Z" stroke="#00A2B5" stroke-width="2.5" stroke-linecap="round" stroke-linejoin="round"/>
</svg>
