<svg width="64" height="64" viewBox="0 0 64 64" fill="none" xmlns="http://www.w3.org/2000/svg">
<path d="M5.66804 22.1967C5.13471 21.498 5.25471 20.5833 5.89737 20.09C14.1054 13.8073 22.8049 10.666 31.996 10.666C41.1872 10.666 49.8876 13.8082 58.0974 20.0927C58.7694 20.658 58.844 21.5807 58.324 22.1967L33.1107 51.9913C32.9735 52.1532 32.8028 52.2832 32.6103 52.3723C32.4178 52.4615 32.2082 52.5077 31.996 52.5077C31.7839 52.5077 31.5743 52.4615 31.3818 52.3723C31.1893 52.2832 31.0186 52.1532 30.8814 51.9913L5.66804 22.1967Z" stroke="white" stroke-width="5"/>
<path d="M32 21.332V29.6654M32 37.3587L32.0267 37.3294" stroke="white" stroke-width="5" stroke-linecap="round" stroke-linejoin="round"/>
</svg>
