<svg width="65" height="65" viewBox="0 0 65 65" fill="none" xmlns="http://www.w3.org/2000/svg">
<path d="M32.5 56.875C45.9619 56.875 56.875 45.9619 56.875 32.5C56.875 19.0381 45.9619 8.125 32.5 8.125C19.0381 8.125 8.125 19.0381 8.125 32.5C8.125 45.9619 19.0381 56.875 32.5 56.875Z" stroke="white" stroke-width="5" stroke-linecap="round"/>
<path d="M32.5 45.959C33.8807 45.959 35 44.8397 35 43.459C35 42.0783 33.8807 40.959 32.5 40.959C31.1193 40.959 30 42.0783 30 43.459C30 44.8397 31.1193 45.959 32.5 45.959Z" fill="white"/>
<path d="M32.5 36.959V35.0307C32.5 33.4242 33.2735 34.1735 34.5605 33.2825L35.8583 32.3825C36.8244 31.7128 37.6166 30.8059 38.1646 29.7423C38.7126 28.6788 38.9995 27.4912 39 26.285V25.709C39 23.9188 38.3152 22.2019 37.0962 20.936C35.8772 19.6701 34.2239 18.959 32.5 18.959C30.7761 18.959 29.1228 19.6701 27.9038 20.936C26.6848 22.2019 26 23.9188 26 25.709" stroke="white" stroke-width="5" stroke-linecap="round"/>
</svg>
