<svg width="96" height="68" viewBox="0 0 96 68" fill="none" xmlns="http://www.w3.org/2000/svg">
<g clip-path="url(#clip0_603_2814)">
<path d="M93.8798 57.3939C93.3292 59.4439 92.2551 61.3128 90.7645 62.8145C89.2738 64.3162 87.4187 65.3984 85.3838 65.9532C77.9341 68 47.9513 68 47.9513 68C47.9513 68 17.9671 67.938 10.5173 65.8912C8.48238 65.3364 6.62723 64.2542 5.13661 62.7524C3.64599 61.2506 2.5719 59.3816 2.02132 57.3316C-0.232053 43.9968 -1.10618 23.6776 2.0832 10.8762C2.63384 8.82623 3.70795 6.95732 5.19857 5.4556C6.68918 3.95387 8.5443 2.87172 10.5792 2.31691C18.0289 0.270111 48.0125 0.270111 48.0125 0.270111C48.0125 0.270111 77.9956 0.270111 85.4449 2.31691C87.4799 2.87166 89.3351 3.95378 90.8258 5.45551C92.3165 6.95724 93.3906 8.82618 93.9413 10.8762C96.3181 24.2299 97.0504 44.5366 93.8798 57.3939Z" fill="#FF0000"/>
<path d="M38.4062 19.6216L63.2792 34.1351L38.4062 48.6486V19.6216Z" fill="white"/>
</g>
<defs>
<clipPath id="clip0_603_2814">
<rect width="96" height="68" fill="white" transform="matrix(1 0 0 -1 0 68)"/>
</clipPath>
</defs>
</svg>
