<svg width="43" height="43" viewBox="0 0 43 43" fill="none" xmlns="http://www.w3.org/2000/svg">
<path d="M13.4659 21.5568V5.97798C13.4659 5.34232 13.7184 4.7327 14.1679 4.28323C14.6173 3.83375 15.2269 3.58124 15.8626 3.58124H32.8459C33.4811 3.58137 34.0903 3.83367 34.5396 4.28268L39.1285 8.87164C39.5776 9.32095 39.8299 9.93012 39.83 10.5653V32.3421M3.87891 25.1519H8.67238C9.30804 25.1519 9.91766 25.4044 10.3671 25.8539C10.8166 26.3034 11.0691 26.913 11.0691 27.5486M11.0691 27.5486V37.1356M11.0691 27.5486H19.4577C20.729 27.5486 21.9483 28.0537 22.8472 28.9526C23.7462 29.8516 24.2512 31.0708 24.2512 32.3421M11.0691 37.1356C11.0691 37.7712 10.8166 38.3809 10.3671 38.8303C9.91766 39.2798 9.30804 39.5323 8.67238 39.5323H3.87891M11.0691 37.1356H35.0365C35.0365 35.8643 34.5315 34.645 33.6325 33.7461C32.7336 32.8471 31.5143 32.3421 30.243 32.3421H24.2512M24.2512 32.3421H19.4577" stroke="#00A2B5" stroke-width="2.5" stroke-linecap="round" stroke-linejoin="round"/>
<path d="M6.87458 34.7389C6.71566 34.7389 6.56326 34.6757 6.45089 34.5634C6.33852 34.451 6.27539 34.2986 6.27539 34.1397C6.27539 33.9808 6.33852 33.8283 6.45089 33.716C6.56326 33.6036 6.71566 33.5405 6.87458 33.5405M6.87458 34.7389C7.03349 34.7389 7.18589 34.6757 7.29826 34.5634C7.41063 34.451 7.47376 34.2986 7.47376 34.1397C7.47376 33.9808 7.41063 33.8283 7.29826 33.716C7.18589 33.6036 7.03349 33.5405 6.87458 33.5405" stroke="#00A2B5" stroke-width="2.5"/>
</svg>
