<svg width="78" height="81" viewBox="0 0 78 81" fill="none" xmlns="http://www.w3.org/2000/svg">
<path d="M18.2654 17.1607C19.4012 17.5605 20.61 17.7098 21.8089 17.5984C23.0078 17.487 24.1684 17.1175 25.2111 16.5153C26.2537 15.9131 27.1537 15.0924 27.8493 14.1096C28.5449 13.1268 29.0197 12.0052 29.2409 10.8216L30.5764 3.64367C36.0675 2.39278 41.7697 2.39278 47.2608 3.64367L48.6046 10.8216C48.8259 12.0052 49.3006 13.1268 49.9962 14.1096C50.6918 15.0924 51.5919 15.9131 52.6345 16.5153C53.6772 17.1175 54.8378 17.487 56.0367 17.5984C57.2356 17.7098 58.4444 17.5605 59.5802 17.1607L66.4618 14.7402C70.2924 18.8666 73.1463 23.8014 74.8124 29.1795L69.262 33.937C68.3479 34.7205 67.6141 35.6926 67.111 36.7864C66.6079 37.8803 66.3474 39.07 66.3474 40.274C66.3474 41.478 66.6079 42.6677 67.111 43.7616C67.6141 44.8554 68.3479 45.8275 69.262 46.611L74.8124 51.3643C73.1463 56.7425 70.2924 61.6772 66.4618 65.8036L59.576 63.3831C58.4402 62.9834 57.2314 62.834 56.0325 62.9454C54.8336 63.0568 53.673 63.4263 52.6303 64.0285C51.5877 64.6307 50.6877 65.4514 49.9921 66.4342C49.2964 67.417 48.8217 68.5387 48.6005 69.7222L47.2692 76.9002C41.778 78.1511 36.0759 78.1511 30.5847 76.9002L29.2409 69.7222C29.0197 68.5387 28.5449 67.417 27.8493 66.4342C27.1537 65.4514 26.2537 64.6307 25.2111 64.0285C24.1684 63.4263 23.0078 63.0568 21.8089 62.9454C20.61 62.834 19.4012 62.9834 18.2654 63.3831L11.3838 65.8036C7.55317 61.6772 4.69928 56.7425 3.0332 51.3643L8.58357 46.6068C9.49698 45.8233 10.2302 44.8515 10.7328 43.758C11.2355 42.6646 11.4957 41.4754 11.4957 40.2719C11.4957 39.0685 11.2355 37.8793 10.7328 36.7858C10.2302 35.6924 9.49698 34.7205 8.58357 33.937L3.0332 29.1795C4.69805 23.8017 7.55051 18.867 11.3796 14.7402L18.2654 17.1607ZM38.9228 27.7523C42.2432 27.7523 45.4276 29.0713 47.7755 31.4192C50.1234 33.7671 51.4424 36.9515 51.4424 40.2719C51.4424 43.5923 50.1234 46.7767 47.7755 49.1246C45.4276 51.4725 42.2432 52.7915 38.9228 52.7915C35.6024 52.7915 32.418 51.4725 30.0701 49.1246C27.7222 46.7767 26.4032 43.5923 26.4032 40.2719C26.4032 36.9515 27.7222 33.7671 30.0701 31.4192C32.418 29.0713 35.6024 27.7523 38.9228 27.7523Z" stroke="white" stroke-width="5.21651" stroke-linecap="round" stroke-linejoin="round"/>
</svg>
