<svg width="78" height="81" viewBox="0 0 78 81" fill="none" xmlns="http://www.w3.org/2000/svg">
<path d="M18.3621 17.4755C19.4971 17.8751 20.7051 18.0243 21.9031 17.9129C23.1012 17.8016 24.261 17.4324 25.3029 16.8306C26.3448 16.2288 27.2442 15.4088 27.9393 14.4266C28.6344 13.4445 29.1088 12.3236 29.3299 11.1409L30.6644 3.96803C36.1517 2.71801 41.8499 2.71801 47.3372 3.96803L48.68 11.1409C48.9011 12.3236 49.3755 13.4445 50.0706 14.4266C50.7658 15.4088 51.6652 16.2288 52.7071 16.8306C53.749 17.4324 54.9088 17.8016 56.1069 17.9129C57.3049 18.0243 58.5129 17.8751 59.6478 17.4755L66.5246 15.0568C70.3526 19.1802 73.2044 24.1116 74.8693 29.4859L69.3229 34.2401C68.4094 35.0231 67.6761 35.9944 67.1734 37.0875C66.6707 38.1806 66.4104 39.3695 66.4104 40.5726C66.4104 41.7758 66.6707 42.9647 67.1734 44.0577C67.6761 45.1508 68.4094 46.1222 69.3229 46.9052L74.8693 51.6551C73.2044 57.0295 70.3526 61.9608 66.5246 66.0843L59.6437 63.6655C58.5087 63.266 57.3008 63.1168 56.1027 63.2281C54.9046 63.3394 53.7448 63.7087 52.7029 64.3104C51.661 64.9122 50.7616 65.7323 50.0665 66.7144C49.3714 67.6965 48.897 68.8174 48.6759 70.0002L47.3455 77.173C41.8582 78.423 36.1601 78.423 30.6728 77.173L29.3299 70.0002C29.1088 68.8174 28.6344 67.6965 27.9393 66.7144C27.2442 65.7323 26.3448 64.9122 25.3029 64.3104C24.261 63.7087 23.1012 63.3394 21.9031 63.2281C20.7051 63.1168 19.4971 63.266 18.3621 63.6655L11.4853 66.0843C7.65742 61.9608 4.80553 57.0295 3.14062 51.6551L8.68709 46.901C9.59986 46.118 10.3325 45.1469 10.8348 44.0542C11.3371 42.9615 11.5972 41.7731 11.5972 40.5705C11.5972 39.3679 11.3371 38.1795 10.8348 37.0869C10.3325 35.9942 9.59986 35.0231 8.68709 34.2401L3.14062 29.4859C4.8043 24.1119 7.65475 19.1807 11.4812 15.0568L18.3621 17.4755ZM39.005 28.0597C42.3231 28.0597 45.5052 29.3778 47.8515 31.724C50.1977 34.0703 51.5158 37.2525 51.5158 40.5705C51.5158 43.8886 50.1977 47.0708 47.8515 49.417C45.5052 51.7633 42.3231 53.0814 39.005 53.0814C35.6869 53.0814 32.5047 51.7633 30.1585 49.417C27.8123 47.0708 26.4942 43.8886 26.4942 40.5705C26.4942 37.2525 27.8123 34.0703 30.1585 31.724C32.5047 29.3778 35.6869 28.0597 39.005 28.0597Z" stroke="white" stroke-width="5.21284" stroke-linecap="round" stroke-linejoin="round"/>
</svg>
